<?xml version="1.0" encoding="UTF-8" ?>
<!DOCTYPE svg PUBLIC "-//W3C//DTD SVG 1.1//EN" "http://www.w3.org/Graphics/SVG/1.1/DTD/svg11.dtd">
<svg width="950pt" height="610pt" viewBox="0 0 950 610" version="1.1" xmlns="http://www.w3.org/2000/svg">
<g id="#000000ff">
<path fill="#000000" opacity="1.00" d=" M 428.23 26.16 C 435.08 22.96 443.88 24.35 449.17 29.83 C 454.54 35.17 455.81 43.89 452.71 50.71 C 450.45 55.70 448.19 60.71 445.76 65.62 C 432.46 65.48 419.15 65.54 405.84 65.58 C 409.06 56.06 414.11 47.26 417.99 38.00 C 419.95 33.06 423.20 28.33 428.23 26.16 Z" />
<path fill="#000000" opacity="1.00" d=" M 464.69 48.69 C 469.72 43.66 477.77 42.12 484.36 44.69 C 493.92 48.18 498.57 60.18 494.37 69.34 C 480.91 98.89 467.21 128.33 453.74 157.88 C 443.62 150.42 431.98 145.33 419.85 142.15 C 423.85 133.46 428.14 124.90 432.21 116.24 C 447.03 115.75 462.36 110.76 472.54 99.54 C 479.04 92.27 484.05 82.92 484.00 72.97 C 483.97 69.96 482.54 65.73 479.01 65.60 C 471.31 65.43 463.61 65.59 455.91 65.58 C 458.29 59.74 460.31 53.38 464.69 48.69 Z" />
<path fill="#000000" opacity="1.00" d=" M 513.35 63.39 C 521.69 60.53 531.70 64.57 535.47 72.59 C 538.27 78.04 537.76 84.66 535.11 90.07 C 523.25 115.85 511.45 141.67 499.54 167.43 C 496.47 174.88 488.22 179.73 480.21 178.59 C 471.53 177.70 464.25 169.77 464.21 161.03 C 463.89 155.58 466.69 150.72 468.85 145.93 C 478.96 123.98 489.07 102.03 499.15 80.06 C 501.93 73.20 505.57 65.55 513.35 63.39 Z" />
<path fill="#000000" opacity="1.00" d=" M 378.18 86.16 C 382.51 79.05 390.66 74.45 399.00 74.44 C 424.34 74.41 449.69 74.56 475.04 74.37 C 474.47 83.16 469.26 91.11 462.74 96.76 C 453.47 104.66 440.93 107.44 429.00 107.29 C 426.89 106.81 425.96 108.70 425.30 110.31 C 419.20 123.26 412.77 136.05 406.85 149.08 C 423.70 150.91 440.80 156.82 453.04 168.95 C 463.00 179.21 468.61 193.71 468.09 208.00 C 468.04 218.32 468.12 228.63 468.05 238.94 C 471.01 238.92 473.98 238.92 476.94 238.94 C 476.83 226.95 477.07 214.95 476.83 202.96 C 476.80 197.22 475.66 191.59 474.17 186.08 C 481.01 188.31 488.39 187.65 494.91 184.74 C 496.27 192.39 501.25 199.63 508.81 202.19 C 518.49 206.02 530.33 201.24 535.00 192.02 C 539.10 183.49 543.03 174.87 546.88 166.22 C 544.20 164.94 541.48 163.73 538.60 162.99 C 535.81 169.91 532.38 176.54 529.39 183.37 C 527.77 186.84 526.29 190.78 522.77 192.76 C 518.14 195.43 511.54 195.33 507.61 191.41 C 503.74 187.81 502.56 181.68 504.87 176.91 C 512.78 159.81 520.70 142.72 528.59 125.62 C 532.75 116.65 544.77 112.89 553.41 117.56 C 559.47 120.71 563.26 127.33 563.37 134.11 C 563.41 158.40 563.34 182.70 563.42 207.00 C 563.48 209.96 562.86 212.91 561.57 215.58 C 552.52 233.89 543.62 252.28 534.51 270.56 C 533.41 272.90 531.94 275.25 532.08 277.94 C 532.04 301.00 532.17 324.05 532.02 347.11 C 513.04 338.11 492.01 333.41 470.99 334.12 C 450.78 334.43 431.00 340.22 413.01 349.22 C 412.77 316.14 413.01 283.05 412.90 249.97 C 413.05 248.35 412.03 247.07 411.14 245.86 C 392.14 220.83 373.26 195.70 354.32 170.63 C 349.94 165.16 347.89 157.91 348.96 150.97 C 349.48 147.05 351.36 143.54 353.01 140.01 C 359.81 125.46 366.58 110.90 373.39 96.36 C 375.01 92.97 376.25 89.40 378.18 86.16 Z" />
<path fill="#000000" opacity="1.00" d=" M 460.43 340.50 C 496.47 336.21 534.11 348.53 560.38 373.63 C 586.18 397.65 600.92 432.99 599.56 468.25 C 598.98 501.75 583.79 534.53 558.97 556.96 C 545.35 569.48 528.86 578.85 511.16 584.21 C 476.15 594.88 436.46 589.49 405.99 569.05 C 376.34 549.67 355.53 517.17 350.99 481.98 C 347.69 458.89 351.04 434.89 360.58 413.61 C 373.77 383.95 398.97 359.90 429.25 348.18 C 439.26 344.30 449.77 341.70 460.43 340.50 M 404.96 380.03 C 406.56 382.66 409.19 384.49 411.22 386.78 C 412.46 387.68 413.29 389.66 414.92 389.72 C 418.34 394.39 422.68 398.38 427.01 402.19 C 431.34 407.27 436.36 411.72 441.01 416.51 C 467.71 443.19 494.33 469.94 521.11 496.55 C 533.69 509.08 546.00 521.96 558.94 534.11 C 581.76 507.20 589.70 468.75 579.96 434.91 C 570.61 400.81 543.64 372.23 510.12 360.95 C 474.92 348.56 433.47 355.85 404.96 380.03 M 370.89 499.94 C 382.14 533.56 410.78 560.66 444.99 569.98 C 478.58 579.59 516.69 571.87 543.53 549.42 C 544.62 547.84 543.10 545.41 541.79 544.23 C 531.80 534.53 522.29 524.31 512.07 514.87 L 512.02 514.16 C 508.87 511.59 506.14 508.58 503.25 505.74 C 478.23 480.76 453.29 455.70 428.23 430.77 C 421.96 424.39 415.63 418.07 409.26 411.79 C 404.76 407.17 400.14 402.67 395.62 398.08 C 393.95 396.97 392.50 393.39 390.19 394.85 C 365.89 423.25 358.57 464.74 370.89 499.94 Z" />
<path fill="#000000" opacity="1.00" d=" M 123.25 429.25 C 198.79 429.32 274.32 429.25 349.86 429.26 C 343.96 449.64 343.15 471.49 347.83 492.19 C 350.81 505.89 356.46 518.85 363.48 530.94 C 283.39 531.03 203.30 531.06 123.21 530.92 C 123.34 497.03 123.26 463.14 123.25 429.25 M 243.43 467.59 C 233.71 469.30 231.41 482.38 236.24 489.68 C 240.41 496.34 251.55 496.25 255.76 489.69 C 258.75 484.98 258.87 478.62 256.54 473.62 C 254.31 468.76 248.50 466.51 243.43 467.59 M 194.79 468.84 C 191.64 470.81 190.97 475.74 193.58 478.43 C 196.07 481.07 199.63 482.30 202.38 484.62 C 204.61 486.34 204.10 490.41 201.39 491.37 C 198.17 492.64 194.82 490.90 191.75 489.98 C 191.78 491.20 191.82 492.43 191.87 493.66 C 195.88 494.47 200.39 495.39 204.11 493.15 C 207.62 491.27 208.70 485.96 206.08 482.93 C 203.36 479.74 198.96 478.69 196.13 475.64 C 194.75 473.98 195.63 471.29 197.62 470.59 C 200.40 469.41 203.33 470.91 206.00 471.70 C 205.97 470.52 205.93 469.36 205.90 468.19 C 202.26 467.54 198.06 466.52 194.79 468.84 M 209.21 468.09 C 209.24 468.75 209.28 470.07 209.31 470.73 C 212.40 470.73 215.50 470.71 218.59 470.87 C 218.50 478.58 218.54 486.29 218.57 494.00 C 219.49 494.00 221.32 494.00 222.24 494.00 C 222.22 486.26 222.26 478.52 222.21 470.79 C 225.32 470.44 228.81 471.45 231.67 470.15 C 231.58 469.62 231.39 468.58 231.30 468.05 C 223.94 467.94 216.57 467.93 209.21 468.09 M 263.30 468.06 C 263.38 476.67 263.41 485.29 263.29 493.90 C 264.52 493.94 265.75 493.99 266.98 494.04 C 267.00 490.58 266.98 487.12 267.09 483.67 C 269.80 483.48 272.70 483.53 275.10 482.08 C 279.41 479.90 280.70 473.12 277.22 469.72 C 273.10 467.11 267.91 468.21 263.30 468.06 Z" />
<path fill="#000000" opacity="1.00" d=" M 600.14 429.27 C 675.68 429.24 751.21 429.32 826.75 429.25 C 826.74 463.14 826.66 497.03 826.79 530.92 C 746.70 531.05 666.61 531.03 586.52 530.94 C 594.99 516.46 601.30 500.58 603.72 483.93 C 606.57 465.74 605.31 446.93 600.14 429.27 M 623.93 467.87 C 619.90 469.94 617.95 474.59 617.89 478.95 C 617.58 483.69 618.90 489.16 623.24 491.78 C 628.00 494.63 633.85 493.62 638.93 492.26 C 638.89 488.76 638.90 485.26 638.90 481.77 C 637.67 481.78 636.44 481.80 635.22 481.82 C 635.25 484.71 635.30 487.61 634.99 490.50 C 631.92 490.74 628.44 491.21 625.82 489.22 C 622.20 486.81 621.53 481.95 621.97 477.95 C 622.19 474.52 624.07 470.88 627.47 469.70 C 631.29 468.41 635.20 469.89 638.89 470.88 C 638.85 469.71 638.82 468.55 638.79 467.39 C 633.92 466.50 628.52 465.42 623.93 467.87 M 645.30 467.06 C 645.38 475.67 645.40 484.29 645.29 492.90 C 646.51 492.95 647.75 492.99 648.98 493.04 C 649.00 489.58 648.97 486.12 649.09 482.67 C 651.79 482.48 654.69 482.53 657.10 481.07 C 661.41 478.90 662.69 472.13 659.23 468.72 C 655.11 466.11 649.91 467.21 645.30 467.06 M 665.29 467.10 C 665.40 475.71 665.39 484.32 665.30 492.94 C 670.48 493.03 675.66 493.04 680.84 492.93 C 680.82 492.25 680.76 490.91 680.74 490.23 C 676.83 490.24 672.93 490.25 669.03 490.22 C 669.01 482.46 669.06 474.70 668.99 466.95 C 667.75 466.99 666.52 467.04 665.29 467.10 M 693.30 467.06 C 693.38 475.67 693.41 484.29 693.29 492.90 C 694.51 492.95 695.74 492.99 696.98 493.04 C 697.00 489.58 696.97 486.12 697.09 482.67 C 699.79 482.48 702.69 482.53 705.10 481.08 C 709.41 478.90 710.69 472.13 707.23 468.72 C 703.11 466.11 697.91 467.21 693.30 467.06 M 713.13 467.01 C 713.21 472.63 713.01 478.25 713.23 483.87 C 713.35 487.14 714.29 491.00 717.55 492.50 C 722.20 494.65 729.88 493.85 731.19 487.94 C 732.46 481.06 731.50 474.01 731.86 467.06 C 731.05 467.03 729.43 466.99 728.62 466.97 C 728.37 473.49 728.97 480.06 728.26 486.57 C 727.80 492.33 718.10 492.24 717.26 486.73 C 716.38 480.21 717.02 473.58 716.85 467.02 C 715.61 467.01 714.37 467.01 713.13 467.01 M 738.30 467.07 C 738.38 475.68 738.40 484.29 738.29 492.90 C 739.51 492.95 740.74 492.99 741.98 493.04 C 742.02 489.31 741.98 485.57 742.04 481.84 C 743.25 481.91 744.45 482.07 745.66 482.31 C 748.29 485.74 750.18 489.75 753.11 492.95 C 754.49 493.01 755.87 493.03 757.27 493.00 C 754.68 488.89 751.54 485.15 748.99 481.02 C 750.51 479.55 752.63 478.49 753.40 476.39 C 754.63 473.31 753.72 469.02 750.35 467.76 C 746.48 466.48 742.30 467.10 738.30 467.07 M 761.28 467.10 C 761.38 475.70 761.38 484.30 761.28 492.90 C 762.50 492.95 763.74 492.99 764.99 493.04 C 765.03 484.35 765.03 475.65 764.99 466.95 C 763.74 466.99 762.51 467.04 761.28 467.10 M 772.80 467.84 C 769.64 469.81 768.97 474.75 771.59 477.43 C 774.08 480.07 777.62 481.30 780.38 483.62 C 782.60 485.33 782.10 489.41 779.39 490.37 C 776.17 491.64 772.82 489.90 769.75 488.97 C 769.77 490.20 769.81 491.42 769.87 492.66 C 773.87 493.47 778.38 494.39 782.11 492.15 C 785.62 490.27 786.70 484.96 784.08 481.94 C 781.36 478.74 776.96 477.69 774.13 474.65 C 772.74 472.98 773.62 470.29 775.61 469.59 C 778.39 468.41 781.32 469.91 784.00 470.70 C 783.96 469.52 783.93 468.35 783.90 467.19 C 780.26 466.55 776.06 465.52 772.80 467.84 M 790.31 467.02 C 790.36 475.64 790.44 484.26 790.27 492.87 C 791.07 492.92 792.66 493.02 793.46 493.07 C 793.55 486.03 793.58 479.00 793.43 471.97 C 796.04 478.14 797.90 484.60 800.40 490.82 C 801.48 491.80 803.02 490.95 804.31 490.94 C 806.45 484.55 808.73 478.20 811.34 472.00 C 811.15 479.02 811.18 486.05 811.31 493.07 C 812.17 493.02 813.90 492.93 814.76 492.88 C 814.57 484.27 814.66 475.66 814.71 467.06 C 813.16 467.02 811.61 467.00 810.08 466.99 C 807.49 473.47 805.68 480.29 802.49 486.50 C 800.14 480.05 797.76 473.62 795.62 467.10 C 793.84 467.03 792.07 467.01 790.31 467.02 Z" />
<path fill="#000000" opacity="1.00" d=" M 245.29 470.24 C 248.85 469.79 252.29 472.19 253.33 475.59 C 254.58 479.70 254.57 484.53 252.37 488.34 C 249.88 492.64 242.91 492.97 240.02 488.93 C 237.61 485.54 237.49 481.07 238.21 477.12 C 238.83 473.64 241.57 470.37 245.29 470.24 Z" />
<path fill="#000000" opacity="1.00" d=" M 649.01 469.68 C 651.53 469.98 654.69 469.35 656.60 471.44 C 658.05 473.81 657.29 477.41 654.82 478.81 C 653.08 479.79 651.00 479.72 649.10 480.06 C 648.97 476.60 648.99 473.14 649.01 469.68 Z" />
<path fill="#000000" opacity="1.00" d=" M 697.01 469.68 C 699.53 469.98 702.69 469.35 704.60 471.44 C 706.05 473.82 705.29 477.41 702.82 478.81 C 701.08 479.78 699.00 479.72 697.10 480.06 C 696.97 476.60 696.99 473.14 697.01 469.68 Z" />
<path fill="#000000" opacity="1.00" d=" M 742.02 469.67 C 744.66 469.96 748.49 469.30 749.86 472.26 C 750.43 474.26 749.95 476.86 748.07 478.02 C 746.28 479.19 744.05 479.05 742.03 479.33 C 741.99 476.11 742.00 472.89 742.02 469.67 Z" />
<path fill="#000000" opacity="1.00" d=" M 267.01 470.68 C 269.53 470.98 272.69 470.35 274.60 472.44 C 276.05 474.81 275.30 478.41 272.82 479.81 C 271.08 480.79 269.01 480.72 267.10 481.06 C 266.97 477.60 266.99 474.14 267.01 470.68 Z" />
<path fill="#000000" opacity="1.00" d=" M 2.90 510.42 C 42.43 510.61 81.99 508.64 121.50 510.57 C 121.75 517.58 121.67 524.60 121.54 531.62 C 138.98 548.82 156.71 565.73 174.17 582.90 C 119.79 583.13 65.40 582.92 11.01 583.01 C 8.26 583.01 5.52 582.98 2.78 582.84 C 22.14 570.44 41.96 558.77 61.72 547.01 C 42.81 533.74 23.11 521.59 2.90 510.42 Z" />
<path fill="#000000" opacity="1.00" d=" M 828.50 510.57 C 849.31 509.43 870.17 509.60 891.00 510.01 C 909.71 509.88 928.40 510.55 947.11 510.43 C 926.88 521.57 907.19 533.75 888.29 547.02 C 908.04 558.77 927.85 570.44 947.21 582.83 C 916.81 583.21 886.41 582.89 856.00 583.00 C 829.28 582.94 802.55 583.11 775.83 582.91 C 793.30 565.74 811.03 548.82 828.45 531.62 C 828.33 524.60 828.25 517.58 828.50 510.57 Z" />
<path fill="#000000" opacity="1.00" d=" M 125.33 532.77 C 141.66 532.31 158.02 532.57 174.36 532.64 C 174.43 548.62 174.70 564.62 174.22 580.59 C 164.41 571.83 155.18 562.42 145.70 553.31 C 139.01 546.36 131.46 540.22 125.33 532.77 Z" />
<path fill="#000000" opacity="1.00" d=" M 775.64 532.64 C 791.98 532.57 808.34 532.31 824.67 532.78 C 818.39 540.40 810.63 546.67 803.80 553.81 C 794.45 562.72 785.47 572.04 775.78 580.59 C 775.30 564.62 775.57 548.62 775.64 532.64 Z" />
</g>
<g id="#ffffffff">
<path fill="#ffffff" opacity="1.00" d=" M 404.96 380.03 C 433.47 355.85 474.92 348.56 510.12 360.95 C 543.64 372.23 570.61 400.81 579.96 434.91 C 589.70 468.75 581.76 507.20 558.94 534.11 C 546.00 521.96 533.69 509.08 521.11 496.55 C 523.29 492.32 523.54 486.99 521.28 482.77 C 518.97 479.16 514.61 481.64 511.26 480.95 C 508.99 478.36 509.60 474.42 508.85 471.24 C 516.84 476.43 526.42 481.36 536.22 479.12 C 538.75 478.49 539.38 475.77 539.43 473.52 C 537.94 473.39 536.46 473.26 534.99 473.14 C 534.59 471.47 534.20 469.82 533.84 468.16 C 539.96 466.69 546.12 464.18 550.24 459.22 C 555.68 452.63 560.37 444.76 560.72 436.01 C 561.38 424.80 560.00 412.51 552.24 403.77 C 543.40 392.02 527.13 387.84 513.21 391.23 C 507.01 392.76 502.49 399.71 495.53 397.58 C 496.69 399.88 497.68 402.76 500.38 403.65 C 509.21 406.77 518.62 400.40 527.23 404.60 C 539.48 409.30 544.84 425.05 539.67 436.73 C 538.19 439.70 535.05 442.82 531.44 441.56 C 525.22 439.17 522.11 432.77 518.20 427.82 C 512.80 420.23 505.89 412.09 495.88 411.42 C 488.41 410.22 482.21 415.24 477.07 419.92 C 473.07 416.82 469.14 413.29 464.15 411.93 C 456.22 409.93 447.53 411.53 441.01 416.51 C 436.36 411.72 431.34 407.27 427.01 402.19 C 435.15 402.34 443.53 405.77 451.50 402.59 C 454.28 401.68 455.09 398.64 456.13 396.25 C 453.42 396.47 450.48 397.54 447.91 396.14 C 443.84 394.15 440.30 390.97 435.76 390.03 C 428.92 388.57 421.83 388.92 414.92 389.72 C 413.29 389.66 412.46 387.68 411.22 386.78 C 409.19 384.49 406.56 382.66 404.96 380.03 Z" />
<path fill="#ffffff" opacity="1.00" d=" M 370.89 499.94 C 358.57 464.74 365.89 423.25 390.19 394.85 C 392.50 393.39 393.95 396.97 395.62 398.08 C 387.84 405.19 382.29 415.22 382.08 425.92 C 381.87 434.54 382.39 443.62 386.75 451.29 C 390.66 458.03 395.84 464.60 403.14 467.82 C 406.40 469.37 410.17 469.45 413.38 471.10 C 414.16 476.22 409.83 480.07 408.78 484.87 C 405.90 487.71 401.26 490.93 403.30 495.65 C 407.04 495.53 410.69 494.19 414.50 494.65 C 416.09 493.11 417.80 491.69 419.66 490.49 C 419.71 497.85 418.91 505.33 420.71 512.56 C 423.76 525.69 432.91 536.65 443.84 544.16 C 438.05 537.58 431.06 531.81 427.26 523.71 C 421.89 513.26 421.69 501.25 422.51 489.79 C 426.30 488.94 429.91 487.51 433.40 485.82 C 434.01 490.03 434.43 494.27 434.42 498.53 C 437.74 500.80 437.32 504.88 437.90 508.40 C 439.09 509.16 440.54 509.31 441.88 509.72 C 442.40 511.00 442.89 512.30 443.39 513.61 C 444.68 513.93 445.98 514.26 447.29 514.59 C 446.27 516.41 444.51 518.32 445.49 520.55 C 445.93 523.39 448.98 523.95 451.21 524.82 C 451.51 525.64 451.82 526.47 452.13 527.30 C 453.70 527.70 455.26 528.13 456.76 528.76 C 455.85 531.15 452.20 533.33 453.83 536.12 C 456.50 540.13 461.41 541.79 464.41 545.53 C 462.49 547.43 458.31 548.41 458.98 551.80 C 459.61 553.23 460.75 554.36 461.73 555.57 C 461.51 553.93 461.25 552.32 461.03 550.69 C 463.13 549.74 466.02 549.26 466.79 546.73 C 466.85 544.24 465.39 542.01 464.81 539.65 C 467.49 542.24 469.48 545.41 471.69 548.38 C 470.97 550.72 469.16 552.61 468.71 555.05 C 468.65 557.25 470.47 558.76 471.70 560.38 C 471.17 558.03 470.60 555.55 472.24 553.50 C 474.32 558.66 478.60 562.89 484.05 564.35 C 483.28 563.10 482.49 561.88 481.72 560.65 C 485.28 562.30 489.07 563.29 492.92 563.99 C 491.11 562.41 489.32 560.79 487.83 558.89 C 490.93 560.13 493.70 562.38 497.12 562.66 C 499.53 562.92 501.90 562.26 504.21 561.62 C 502.42 561.37 500.64 561.16 498.87 560.95 C 501.95 558.67 504.85 556.08 507.04 552.90 C 505.02 553.91 503.07 555.05 501.10 556.13 C 501.67 555.07 502.27 554.03 502.88 552.99 C 498.64 553.52 494.88 550.93 493.49 546.97 C 495.55 544.15 499.55 543.07 500.81 539.65 C 502.28 535.91 497.27 532.31 499.83 528.86 C 502.14 525.33 507.06 526.97 510.49 525.57 C 512.86 522.52 512.28 518.45 512.07 514.87 C 522.29 524.31 531.80 534.53 541.79 544.23 C 543.10 545.41 544.62 547.84 543.53 549.42 C 516.69 571.87 478.58 579.59 444.99 569.98 C 410.78 560.66 382.14 533.56 370.89 499.94 Z" />
<path fill="#ffffff" opacity="1.00" d=" M 409.26 411.79 C 415.63 418.07 421.96 424.39 428.23 430.77 C 424.78 434.46 421.77 438.76 417.34 441.37 C 415.29 442.66 412.55 442.98 410.41 441.71 C 405.59 439.05 403.30 433.32 403.60 428.00 C 403.28 422.04 406.32 416.73 409.26 411.79 Z" />
<path fill="#ffffff" opacity="1.00" d=" M 623.93 467.87 C 628.52 465.42 633.92 466.50 638.79 467.39 C 638.82 468.55 638.85 469.71 638.89 470.88 C 635.20 469.89 631.29 468.41 627.47 469.70 C 624.07 470.88 622.19 474.52 621.97 477.95 C 621.53 481.95 622.20 486.81 625.82 489.22 C 628.44 491.21 631.92 490.74 634.99 490.50 C 635.30 487.61 635.25 484.71 635.22 481.82 C 636.44 481.80 637.67 481.78 638.90 481.77 C 638.90 485.26 638.89 488.76 638.93 492.26 C 633.85 493.62 628.00 494.63 623.24 491.78 C 618.90 489.16 617.58 483.69 617.89 478.95 C 617.95 474.59 619.90 469.94 623.93 467.87 Z" />
<path fill="#ffffff" opacity="1.00" d=" M 243.43 467.59 C 248.50 466.51 254.31 468.76 256.54 473.62 C 258.87 478.62 258.75 484.98 255.76 489.69 C 251.55 496.25 240.41 496.34 236.24 489.68 C 231.41 482.38 233.71 469.30 243.43 467.59 M 245.29 470.24 C 241.57 470.37 238.83 473.64 238.21 477.12 C 237.49 481.07 237.61 485.54 240.02 488.93 C 242.91 492.97 249.88 492.64 252.37 488.34 C 254.57 484.53 254.58 479.70 253.33 475.59 C 252.29 472.19 248.85 469.79 245.29 470.24 Z" />
<path fill="#ffffff" opacity="1.00" d=" M 645.30 467.06 C 649.91 467.21 655.11 466.11 659.23 468.72 C 662.69 472.13 661.41 478.90 657.10 481.07 C 654.69 482.53 651.79 482.48 649.09 482.67 C 648.97 486.12 649.00 489.58 648.98 493.04 C 647.75 492.99 646.51 492.95 645.29 492.90 C 645.40 484.29 645.38 475.67 645.30 467.06 M 649.01 469.68 C 648.99 473.14 648.97 476.60 649.10 480.06 C 651.00 479.72 653.08 479.79 654.82 478.81 C 657.29 477.41 658.05 473.81 656.60 471.44 C 654.69 469.35 651.53 469.98 649.01 469.68 Z" />
<path fill="#ffffff" opacity="1.00" d=" M 665.29 467.10 C 666.52 467.04 667.75 466.99 668.99 466.95 C 669.06 474.70 669.01 482.46 669.03 490.22 C 672.93 490.25 676.83 490.24 680.74 490.23 C 680.76 490.91 680.82 492.25 680.84 492.93 C 675.66 493.04 670.48 493.03 665.30 492.94 C 665.39 484.32 665.40 475.71 665.29 467.10 Z" />
<path fill="#ffffff" opacity="1.00" d=" M 693.30 467.06 C 697.91 467.21 703.11 466.11 707.23 468.72 C 710.69 472.13 709.41 478.90 705.10 481.08 C 702.69 482.53 699.79 482.48 697.09 482.67 C 696.97 486.12 697.00 489.58 696.98 493.04 C 695.74 492.99 694.51 492.95 693.29 492.90 C 693.41 484.29 693.38 475.67 693.30 467.06 M 697.01 469.68 C 696.99 473.14 696.97 476.60 697.10 480.06 C 699.00 479.72 701.08 479.78 702.82 478.81 C 705.29 477.41 706.05 473.82 704.60 471.44 C 702.69 469.35 699.53 469.98 697.01 469.68 Z" />
<path fill="#ffffff" opacity="1.00" d=" M 713.13 467.01 C 714.37 467.01 715.61 467.01 716.85 467.02 C 717.02 473.58 716.38 480.21 717.26 486.73 C 718.10 492.24 727.80 492.33 728.26 486.57 C 728.97 480.06 728.37 473.49 728.62 466.97 C 729.43 466.99 731.05 467.03 731.86 467.06 C 731.50 474.01 732.46 481.06 731.19 487.94 C 729.88 493.85 722.20 494.65 717.55 492.50 C 714.29 491.00 713.35 487.14 713.23 483.87 C 713.01 478.25 713.21 472.63 713.13 467.01 Z" />
<path fill="#ffffff" opacity="1.00" d=" M 738.30 467.07 C 742.30 467.10 746.48 466.48 750.35 467.76 C 753.72 469.02 754.63 473.31 753.40 476.39 C 752.63 478.49 750.51 479.55 748.99 481.02 C 751.54 485.15 754.68 488.89 757.27 493.00 C 755.87 493.03 754.49 493.01 753.11 492.95 C 750.18 489.75 748.29 485.74 745.66 482.31 C 744.45 482.07 743.25 481.91 742.04 481.84 C 741.98 485.57 742.02 489.31 741.98 493.04 C 740.74 492.99 739.51 492.95 738.29 492.90 C 738.40 484.29 738.38 475.68 738.30 467.07 M 742.02 469.67 C 742.00 472.89 741.99 476.11 742.03 479.33 C 744.05 479.05 746.28 479.19 748.07 478.02 C 749.95 476.86 750.43 474.26 749.86 472.26 C 748.49 469.30 744.66 469.96 742.02 469.67 Z" />
<path fill="#ffffff" opacity="1.00" d=" M 761.28 467.10 C 762.51 467.04 763.74 466.99 764.99 466.95 C 765.03 475.65 765.03 484.35 764.99 493.04 C 763.74 492.99 762.50 492.95 761.28 492.90 C 761.38 484.30 761.38 475.70 761.28 467.10 Z" />
<path fill="#ffffff" opacity="1.00" d=" M 772.80 467.84 C 776.06 465.52 780.26 466.55 783.90 467.19 C 783.93 468.35 783.96 469.52 784.00 470.70 C 781.32 469.91 778.39 468.41 775.61 469.59 C 773.62 470.29 772.74 472.98 774.13 474.65 C 776.96 477.69 781.36 478.74 784.08 481.94 C 786.70 484.96 785.62 490.27 782.11 492.15 C 778.38 494.39 773.87 493.47 769.87 492.66 C 769.81 491.42 769.77 490.20 769.75 488.97 C 772.82 489.90 776.17 491.64 779.39 490.37 C 782.10 489.41 782.60 485.33 780.38 483.62 C 777.62 481.30 774.08 480.07 771.59 477.43 C 768.97 474.75 769.64 469.81 772.80 467.84 Z" />
<path fill="#ffffff" opacity="1.00" d=" M 790.31 467.02 C 792.07 467.01 793.84 467.03 795.62 467.10 C 797.76 473.62 800.14 480.05 802.49 486.50 C 805.68 480.29 807.49 473.47 810.08 466.99 C 811.61 467.00 813.16 467.02 814.71 467.06 C 814.66 475.66 814.57 484.27 814.76 492.88 C 813.90 492.93 812.17 493.02 811.31 493.07 C 811.18 486.05 811.15 479.02 811.34 472.00 C 808.73 478.20 806.45 484.55 804.31 490.94 C 803.02 490.95 801.48 491.80 800.40 490.82 C 797.90 484.60 796.04 478.14 793.43 471.97 C 793.58 479.00 793.55 486.03 793.46 493.07 C 792.66 493.02 791.07 492.92 790.27 492.87 C 790.44 484.26 790.36 475.64 790.31 467.02 Z" />
<path fill="#ffffff" opacity="1.00" d=" M 194.79 468.84 C 198.06 466.52 202.26 467.54 205.90 468.19 C 205.93 469.36 205.97 470.52 206.00 471.70 C 203.33 470.91 200.40 469.41 197.62 470.59 C 195.63 471.29 194.75 473.98 196.13 475.64 C 198.96 478.69 203.36 479.74 206.08 482.93 C 208.70 485.96 207.62 491.27 204.11 493.15 C 200.39 495.39 195.88 494.47 191.87 493.66 C 191.82 492.43 191.78 491.20 191.75 489.98 C 194.82 490.90 198.17 492.64 201.39 491.37 C 204.10 490.41 204.61 486.34 202.38 484.62 C 199.63 482.30 196.07 481.07 193.58 478.43 C 190.97 475.74 191.64 470.81 194.79 468.84 Z" />
<path fill="#ffffff" opacity="1.00" d=" M 209.21 468.09 C 216.57 467.93 223.94 467.94 231.30 468.05 C 231.39 468.58 231.58 469.62 231.67 470.15 C 228.81 471.45 225.32 470.44 222.21 470.79 C 222.26 478.52 222.22 486.26 222.24 494.00 C 221.32 494.00 219.49 494.00 218.57 494.00 C 218.54 486.29 218.50 478.58 218.59 470.87 C 215.50 470.71 212.40 470.73 209.31 470.73 C 209.28 470.07 209.24 468.75 209.21 468.09 Z" />
<path fill="#ffffff" opacity="1.00" d=" M 263.30 468.06 C 267.91 468.21 273.10 467.11 277.22 469.72 C 280.70 473.12 279.41 479.90 275.10 482.08 C 272.70 483.53 269.80 483.48 267.09 483.67 C 266.98 487.12 267.00 490.58 266.98 494.04 C 265.75 493.99 264.52 493.94 263.29 493.90 C 263.41 485.29 263.38 476.67 263.30 468.06 M 267.01 470.68 C 266.99 474.14 266.97 477.60 267.10 481.06 C 269.01 480.72 271.08 480.79 272.82 479.81 C 275.30 478.41 276.05 474.81 274.60 472.44 C 272.69 470.35 269.53 470.98 267.01 470.68 Z" />
</g>
<g id="#d71414ff">
<path fill="#d71414" opacity="1.00" d=" M 414.92 389.72 C 421.83 388.92 428.92 388.57 435.76 390.03 C 440.30 390.97 443.84 394.15 447.91 396.14 C 450.48 397.54 453.42 396.47 456.13 396.25 C 455.09 398.64 454.28 401.68 451.50 402.59 C 443.53 405.77 435.15 402.34 427.01 402.19 C 422.68 398.38 418.34 394.39 414.92 389.72 Z" />
<path fill="#d71414" opacity="1.00" d=" M 513.21 391.23 C 527.13 387.84 543.40 392.02 552.24 403.77 C 560.00 412.51 561.38 424.80 560.72 436.01 C 560.37 444.76 555.68 452.63 550.24 459.22 C 546.12 464.18 539.96 466.69 533.84 468.16 C 534.20 469.82 534.59 471.47 534.99 473.14 C 536.46 473.26 537.94 473.39 539.43 473.52 C 539.38 475.77 538.75 478.49 536.22 479.12 C 526.42 481.36 516.84 476.43 508.85 471.24 C 509.60 474.42 508.99 478.36 511.26 480.95 C 514.61 481.64 518.97 479.16 521.28 482.77 C 523.54 486.99 523.29 492.32 521.11 496.55 C 494.33 469.94 467.71 443.19 441.01 416.51 C 447.53 411.53 456.22 409.93 464.15 411.93 C 469.14 413.29 473.07 416.82 477.07 419.92 C 482.21 415.24 488.41 410.22 495.88 411.42 C 505.89 412.09 512.80 420.23 518.20 427.82 C 522.11 432.77 525.22 439.17 531.44 441.56 C 535.05 442.82 538.19 439.70 539.67 436.73 C 544.84 425.05 539.48 409.30 527.23 404.60 C 518.62 400.40 509.21 406.77 500.38 403.65 C 497.68 402.76 496.69 399.88 495.53 397.58 C 502.49 399.71 507.01 392.76 513.21 391.23 Z" />
<path fill="#d71414" opacity="1.00" d=" M 395.62 398.08 C 400.14 402.67 404.76 407.17 409.26 411.79 C 406.32 416.73 403.28 422.04 403.60 428.00 C 403.30 433.32 405.59 439.05 410.41 441.71 C 412.55 442.98 415.29 442.66 417.34 441.37 C 421.77 438.76 424.78 434.46 428.23 430.77 C 453.29 455.70 478.23 480.76 503.25 505.74 C 506.14 508.58 508.87 511.59 512.02 514.16 L 512.07 514.87 C 512.28 518.45 512.86 522.52 510.49 525.57 C 507.06 526.97 502.14 525.33 499.83 528.86 C 497.27 532.31 502.28 535.91 500.81 539.65 C 499.55 543.07 495.55 544.15 493.49 546.97 C 494.88 550.93 498.64 553.52 502.88 552.99 C 502.27 554.03 501.67 555.07 501.10 556.13 C 503.07 555.05 505.02 553.91 507.04 552.90 C 504.85 556.08 501.95 558.67 498.87 560.95 C 500.64 561.16 502.42 561.37 504.21 561.62 C 501.90 562.26 499.53 562.92 497.12 562.66 C 493.70 562.38 490.93 560.13 487.83 558.89 C 489.32 560.79 491.11 562.41 492.92 563.99 C 489.07 563.29 485.28 562.30 481.72 560.65 C 482.49 561.88 483.28 563.10 484.05 564.35 C 478.60 562.89 474.32 558.66 472.24 553.50 C 470.60 555.55 471.17 558.03 471.70 560.38 C 470.47 558.76 468.65 557.25 468.71 555.05 C 469.16 552.61 470.97 550.72 471.69 548.38 C 469.48 545.41 467.49 542.24 464.81 539.65 C 465.39 542.01 466.85 544.24 466.79 546.73 C 466.02 549.26 463.13 549.74 461.03 550.69 C 461.25 552.32 461.51 553.93 461.73 555.57 C 460.75 554.36 459.61 553.23 458.98 551.80 C 458.31 548.41 462.49 547.43 464.41 545.53 C 461.41 541.79 456.50 540.13 453.83 536.12 C 452.20 533.33 455.85 531.15 456.76 528.76 C 455.26 528.13 453.70 527.70 452.13 527.30 C 451.82 526.47 451.51 525.64 451.21 524.82 C 448.98 523.95 445.93 523.39 445.49 520.55 C 444.51 518.32 446.27 516.41 447.29 514.59 C 445.98 514.26 444.68 513.93 443.39 513.61 C 442.89 512.30 442.40 511.00 441.88 509.72 C 440.54 509.31 439.09 509.16 437.90 508.40 C 437.32 504.88 437.74 500.80 434.42 498.53 C 434.43 494.27 434.01 490.03 433.40 485.82 C 429.91 487.51 426.30 488.94 422.51 489.79 C 421.69 501.25 421.89 513.26 427.26 523.71 C 431.06 531.81 438.05 537.58 443.84 544.16 C 432.91 536.65 423.76 525.69 420.71 512.56 C 418.91 505.33 419.71 497.85 419.66 490.49 C 417.80 491.69 416.09 493.11 414.50 494.65 C 410.69 494.19 407.04 495.53 403.30 495.65 C 401.26 490.93 405.90 487.71 408.78 484.87 C 409.83 480.07 414.16 476.22 413.38 471.10 C 410.17 469.45 406.40 469.37 403.14 467.82 C 395.84 464.60 390.66 458.03 386.75 451.29 C 382.39 443.62 381.87 434.54 382.08 425.92 C 382.29 415.22 387.84 405.19 395.62 398.08 Z" />
</g>
</svg>
